<svg xmlns="http://www.w3.org/2000/svg" viewBox="0 0 1600 120" preserveAspectRatio="none">
  <defs>
    <clipPath id="tapeClip">
      <path d="M-20 40 C108 31 228 36 350 29 C486 22 612 34 750 28 C884 22 1012 31 1148 26 C1288 21 1434 31 1620 24 L1620 82 C1458 88 1308 79 1168 86 C1024 93 894 82 756 88 C616 95 478 84 344 91 C214 98 98 90 -20 96 Z"/>
    </clipPath>
    <filter id="grain" x="-5%" y="-40%" width="110%" height="180%">
      <feTurbulence type="fractalNoise" baseFrequency="0.022 0.29" numOctaves="3" seed="11" result="noise"/>
      <feColorMatrix in="noise" type="saturate" values="0" result="mono"/>
      <feComponentTransfer in="mono" result="softNoise">
        <feFuncA type="table" tableValues="0 0.2"/>
      </feComponentTransfer>
      <feBlend in="SourceGraphic" in2="softNoise" mode="multiply"/>
    </filter>
    <linearGradient id="wrinkle" x1="0" y1="0" x2="0" y2="1">
      <stop offset="0" stop-color="#fff" stop-opacity="0.78"/>
      <stop offset="0.22" stop-color="#d6d3cc" stop-opacity="0.24"/>
      <stop offset="0.48" stop-color="#fff" stop-opacity="0.58"/>
      <stop offset="0.72" stop-color="#c8c4bc" stop-opacity="0.2"/>
      <stop offset="1" stop-color="#fff" stop-opacity="0.74"/>
    </linearGradient>
  </defs>
  <g filter="url(#grain)">
    <path d="M-20 40 C108 31 228 36 350 29 C486 22 612 34 750 28 C884 22 1012 31 1148 26 C1288 21 1434 31 1620 24 L1620 82 C1458 88 1308 79 1168 86 C1024 93 894 82 756 88 C616 95 478 84 344 91 C214 98 98 90 -20 96 Z" fill="#F3F0E8"/>
    <rect x="-20" y="20" width="1640" height="84" fill="url(#wrinkle)" clip-path="url(#tapeClip)" opacity="0.62"/>
    <path d="M-20 45 C176 35 346 40 526 32 C718 24 918 35 1108 29 C1300 23 1464 32 1620 28" fill="none" stroke="#ffffff" stroke-opacity="0.5" stroke-width="2"/>
    <path d="M-20 90 C156 98 338 86 516 92 C708 99 906 87 1094 93 C1286 100 1460 88 1620 92" fill="none" stroke="#bdb9b1" stroke-opacity="0.34" stroke-width="2"/>
  </g>
  <g stroke="#faf7ef" stroke-width="1.2" stroke-linecap="round" opacity="0.7">
    <path d="M96 36 l-7 -8"/><path d="M302 31 l5 -9"/><path d="M684 29 l-6 -8"/><path d="M966 30 l7 -8"/><path d="M1282 26 l-5 -8"/><path d="M1510 28 l7 -7"/>
    <path d="M188 94 l-6 8"/><path d="M542 91 l5 8"/><path d="M860 90 l-7 8"/><path d="M1222 91 l5 8"/><path d="M1460 90 l-5 7"/>
  </g>
</svg>