<svg xmlns="http://www.w3.org/2000/svg" viewBox="0 0 1600 120" preserveAspectRatio="none">
  <defs>
    <clipPath id="tapeClip">
      <path d="M-20 34 C120 29 242 39 370 33 C510 27 641 39 784 34 C925 28 1060 38 1198 32 C1335 27 1474 36 1620 30 L1620 86 C1468 92 1338 81 1192 88 C1052 94 918 82 778 89 C635 95 504 83 364 90 C230 96 108 85 -20 92 Z"/>
    </clipPath>
    <filter id="grain" x="-5%" y="-40%" width="110%" height="180%">
      <feTurbulence type="fractalNoise" baseFrequency="0.018 0.32" numOctaves="3" seed="7" result="noise"/>
      <feColorMatrix in="noise" type="saturate" values="0" result="mono"/>
      <feComponentTransfer in="mono" result="softNoise">
        <feFuncA type="table" tableValues="0 0.22"/>
      </feComponentTransfer>
      <feBlend in="SourceGraphic" in2="softNoise" mode="multiply"/>
    </filter>
    <linearGradient id="wrinkle" x1="0" y1="0" x2="0" y2="1">
      <stop offset="0" stop-color="#fff" stop-opacity="0.72"/>
      <stop offset="0.25" stop-color="#d8d8d8" stop-opacity="0.28"/>
      <stop offset="0.52" stop-color="#fff" stop-opacity="0.62"/>
      <stop offset="0.76" stop-color="#c9c9c9" stop-opacity="0.22"/>
      <stop offset="1" stop-color="#fff" stop-opacity="0.76"/>
    </linearGradient>
  </defs>
  <g filter="url(#grain)">
    <path d="M-20 34 C120 29 242 39 370 33 C510 27 641 39 784 34 C925 28 1060 38 1198 32 C1335 27 1474 36 1620 30 L1620 86 C1468 92 1338 81 1192 88 C1052 94 918 82 778 89 C635 95 504 83 364 90 C230 96 108 85 -20 92 Z" fill="#F4F1E9"/>
    <rect x="-20" y="24" width="1640" height="78" fill="url(#wrinkle)" clip-path="url(#tapeClip)" opacity="0.64"/>
    <path d="M-20 39 C180 35 326 42 514 36 C716 31 916 42 1110 36 C1292 31 1452 39 1620 34" fill="none" stroke="#ffffff" stroke-opacity="0.48" stroke-width="2"/>
    <path d="M-20 82 C168 87 338 79 520 85 C700 91 900 81 1084 87 C1280 93 1452 82 1620 88" fill="none" stroke="#bdb9b0" stroke-opacity="0.38" stroke-width="2"/>
  </g>
  <g stroke="#f8f5ee" stroke-width="1.2" stroke-linecap="round" opacity="0.72">
    <path d="M64 32 l-8 -7"/><path d="M248 38 l6 -8"/><path d="M528 31 l-5 -8"/><path d="M842 35 l7 -9"/><path d="M1188 31 l-4 -8"/><path d="M1458 35 l8 -7"/>
    <path d="M132 90 l-7 8"/><path d="M416 88 l5 8"/><path d="M744 89 l-7 7"/><path d="M1018 87 l5 9"/><path d="M1376 87 l-6 8"/>
  </g>
</svg>